# xmcd CD database file
#
# Track frame offsets:
#	150
#	15557
#	35885
#	54617
#	79352
#	98762
#	113930
#	131020
#	150875
#	171572
#	187807
#
# Disc length: 2742 seconds
#
# Revision: 0
# Processed by: cddbd v1.5.1PL2 Copyright (c) Steve Scherf et al.
# Submitted via: CDex 1.51
#
DISCID=8c0ab40b
DTITLE=Jimmy Norman - Little Pieces
DYEAR=2004
DGENRE=Jazz
TTITLE0=Little Pieces
TTITLE1=Telling Me Lies
TTITLE2=Back Home
TTITLE3=Miracle Worker
TTITLE4=Caught Up
TTITLE5=The Truth
TTITLE6=Only Time Will Tell
TTITLE7=Strange Suspicion
TTITLE8=What Now?
TTITLE9=Coming From Truth
TTITLE10=Time Is On My Side
EXTD=YEAR: 2004
EXTT0=
EXTT1=
EXTT2=
EXTT3=
EXTT4=
EXTT5=
EXTT6=
EXTT7=
EXTT8=
EXTT9=
EXTT10=
PLAYORDER=
